<?xml version="1.0" encoding="UTF-8"?>
<svg xmlns="http://www.w3.org/2000/svg" xmlns:xlink="http://www.w3.org/1999/xlink" width="400px" height="81px" viewBox="0 0 297 60" version="1.1">
<g id="surface1">
<path style=" stroke:none;fill-rule:nonzero;fill:rgb(33.333333%,33.333333%,33.333333%);fill-opacity:1;" d="M 105.570312 14.882812 L 120.304688 14.882812 C 122.410156 14.882812 124.445312 15.089844 126.40625 15.503906 C 128.363281 15.914062 130.089844 16.609375 131.574219 17.578125 C 133.058594 18.550781 134.246094 19.855469 135.132812 21.488281 C 136.023438 23.121094 136.464844 25.15625 136.464844 27.59375 C 136.464844 30.367188 135.992188 32.597656 135.042969 34.292969 C 134.09375 35.988281 132.8125 37.300781 131.203125 38.230469 C 129.59375 39.160156 127.726562 39.792969 125.597656 40.121094 C 123.472656 40.453125 121.253906 40.617188 118.945312 40.617188 L 113.371094 40.617188 L 113.371094 58.789062 L 105.570312 58.789062 Z M 118.078125 33.921875 C 119.191406 33.921875 120.347656 33.878906 121.542969 33.796875 C 122.742188 33.714844 123.84375 33.464844 124.855469 33.054688 C 125.867188 32.640625 126.695312 32.019531 127.332031 31.191406 C 127.972656 30.367188 128.292969 29.207031 128.292969 27.71875 C 128.292969 26.355469 128.003906 25.269531 127.425781 24.464844 C 126.847656 23.65625 126.105469 23.039062 125.195312 22.601562 C 124.289062 22.167969 123.277344 21.890625 122.164062 21.765625 C 121.046875 21.640625 119.976562 21.578125 118.945312 21.578125 L 113.371094 21.578125 L 113.371094 33.921875 Z M 118.078125 33.921875 "/>
<path style=" stroke:none;fill-rule:nonzero;fill:rgb(33.333333%,33.333333%,33.333333%);fill-opacity:1;" d="M 150.792969 46.511719 C 151.039062 48.742188 151.90625 50.480469 153.394531 51.71875 C 154.878906 52.960938 156.675781 53.582031 158.78125 53.582031 C 160.636719 53.582031 162.195312 53.199219 163.453125 52.433594 C 164.714844 51.667969 165.816406 50.707031 166.765625 49.550781 L 172.09375 53.582031 C 170.359375 55.730469 168.417969 57.261719 166.273438 58.167969 C 164.125 59.078125 161.875 59.535156 159.523438 59.535156 C 157.292969 59.535156 155.1875 59.160156 153.207031 58.417969 C 151.226562 57.671875 149.511719 56.621094 148.066406 55.253906 C 146.625 53.890625 145.476562 52.246094 144.632812 50.324219 C 143.785156 48.402344 143.363281 46.261719 143.363281 43.90625 C 143.363281 41.550781 143.785156 39.410156 144.632812 37.488281 C 145.476562 35.566406 146.625 33.921875 148.066406 32.558594 C 149.511719 31.191406 151.226562 30.136719 153.207031 29.394531 C 155.1875 28.648438 157.292969 28.277344 159.523438 28.277344 C 161.585938 28.277344 163.476562 28.640625 165.1875 29.363281 C 166.902344 30.085938 168.367188 31.128906 169.585938 32.496094 C 170.800781 33.859375 171.75 35.542969 172.433594 37.550781 C 173.113281 39.554688 173.453125 41.859375 173.453125 44.464844 L 173.453125 46.511719 Z M 166.023438 40.929688 C 165.984375 38.738281 165.300781 37.011719 163.980469 35.75 C 162.660156 34.488281 160.824219 33.859375 158.46875 33.859375 C 156.242188 33.859375 154.476562 34.5 153.175781 35.78125 C 151.875 37.0625 151.082031 38.777344 150.792969 40.929688 Z M 166.023438 40.929688 "/>
<path style=" stroke:none;fill-rule:nonzero;fill:rgb(33.333333%,33.333333%,33.333333%);fill-opacity:1;" d="M 182.535156 29.023438 L 189.964844 29.023438 L 189.964844 33.734375 L 190.089844 33.734375 C 190.914062 32 192.089844 30.65625 193.617188 29.703125 C 195.144531 28.753906 196.898438 28.277344 198.882812 28.277344 C 199.335938 28.277344 199.777344 28.320312 200.210938 28.402344 C 200.644531 28.484375 201.089844 28.585938 201.542969 28.710938 L 201.542969 35.90625 C 200.925781 35.742188 200.316406 35.605469 199.71875 35.503906 C 199.117188 35.398438 198.53125 35.347656 197.953125 35.347656 C 196.21875 35.347656 194.824219 35.667969 193.773438 36.308594 C 192.71875 36.949219 191.914062 37.683594 191.359375 38.511719 C 190.800781 39.335938 190.429688 40.164062 190.242188 40.992188 C 190.058594 41.816406 189.964844 42.4375 189.964844 42.851562 L 189.964844 58.789062 L 182.535156 58.789062 Z M 209.570312 29.023438 L 216.628906 29.023438 L 216.628906 33.671875 L 216.753906 33.671875 C 217.414062 32.265625 218.476562 31.015625 219.941406 29.921875 C 221.410156 28.824219 223.378906 28.277344 225.855469 28.277344 C 230.519531 28.277344 233.617188 30.117188 235.144531 33.796875 C 236.214844 31.894531 237.558594 30.5 239.167969 29.609375 C 240.777344 28.722656 242.699219 28.277344 244.925781 28.277344 C 246.90625 28.277344 248.578125 28.609375 249.941406 29.269531 C 251.304688 29.929688 252.40625 30.839844 253.253906 32 C 254.101562 33.15625 254.710938 34.511719 255.082031 36.0625 C 255.453125 37.609375 255.636719 39.273438 255.636719 41.054688 L 255.636719 58.789062 L 248.207031 58.789062 L 248.207031 41.921875 C 248.207031 41.011719 248.125 40.132812 247.960938 39.285156 C 247.796875 38.4375 247.507812 37.695312 247.09375 37.054688 C 246.679688 36.414062 246.125 35.90625 245.421875 35.535156 C 244.71875 35.160156 243.8125 34.976562 242.699219 34.976562 C 241.542969 34.976562 240.5625 35.191406 239.757812 35.625 C 238.953125 36.0625 238.289062 36.640625 237.773438 37.363281 C 237.257812 38.085938 236.886719 38.914062 236.660156 39.84375 C 236.433594 40.773438 236.320312 41.714844 236.320312 42.664062 L 236.320312 58.789062 L 228.890625 58.789062 L 228.890625 41.054688 C 228.890625 39.191406 228.496094 37.714844 227.714844 36.617188 C 226.929688 35.523438 225.628906 34.976562 223.8125 34.976562 C 222.574219 34.976562 221.53125 35.183594 220.6875 35.59375 C 219.839844 36.007812 219.136719 36.566406 218.582031 37.269531 C 218.023438 37.972656 217.621094 38.777344 217.375 39.6875 C 217.125 40.597656 217 41.550781 217 42.542969 L 217 58.789062 L 209.570312 58.789062 Z M 264.410156 43.90625 C 264.410156 41.550781 264.832031 39.410156 265.679688 37.488281 C 266.523438 35.566406 267.671875 33.921875 269.113281 32.558594 C 270.558594 31.191406 272.273438 30.136719 274.253906 29.394531 C 276.234375 28.648438 278.339844 28.277344 280.570312 28.277344 C 282.796875 28.277344 284.902344 28.648438 286.886719 29.394531 C 288.867188 30.136719 290.578125 31.191406 292.023438 32.558594 C 293.46875 33.921875 294.613281 35.566406 295.460938 37.488281 C 296.308594 39.410156 296.730469 41.550781 296.730469 43.90625 C 296.730469 46.261719 296.308594 48.402344 295.460938 50.324219 C 294.613281 52.246094 293.46875 53.890625 292.023438 55.253906 C 290.578125 56.621094 288.867188 57.671875 286.886719 58.417969 C 284.902344 59.160156 282.796875 59.535156 280.570312 59.535156 C 278.339844 59.535156 276.234375 59.160156 274.253906 58.417969 C 272.273438 57.671875 270.558594 56.621094 269.113281 55.253906 C 267.671875 53.890625 266.523438 52.246094 265.679688 50.324219 C 264.832031 48.402344 264.410156 46.261719 264.410156 43.90625 Z M 271.839844 43.90625 C 271.839844 45.0625 272.035156 46.179688 272.425781 47.253906 C 272.820312 48.328125 273.398438 49.28125 274.160156 50.109375 C 274.925781 50.933594 275.84375 51.597656 276.917969 52.09375 C 277.988281 52.589844 279.207031 52.835938 280.570312 52.835938 C 281.933594 52.835938 283.148438 52.589844 284.222656 52.09375 C 285.296875 51.597656 286.214844 50.933594 286.976562 50.109375 C 287.742188 49.28125 288.320312 48.328125 288.710938 47.253906 C 289.105469 46.179688 289.300781 45.0625 289.300781 43.90625 C 289.300781 42.75 289.105469 41.632812 288.710938 40.558594 C 288.320312 39.480469 287.742188 38.53125 286.976562 37.703125 C 286.214844 36.878906 285.296875 36.214844 284.222656 35.71875 C 283.148438 35.222656 281.933594 34.976562 280.570312 34.976562 C 279.207031 34.976562 277.988281 35.222656 276.917969 35.71875 C 275.84375 36.214844 274.925781 36.878906 274.160156 37.703125 C 273.398438 38.53125 272.820312 39.480469 272.425781 40.558594 C 272.035156 41.632812 271.839844 42.75 271.839844 43.90625 Z M 271.839844 43.90625 "/>
<path style=" stroke:none;fill-rule:evenodd;fill:rgb(36.862745%,36.862745%,36.862745%);fill-opacity:1;" d="M 32.21875 32.066406 C 32.21875 34.015625 30.640625 35.597656 28.691406 35.597656 C 26.746094 35.597656 25.167969 34.015625 25.167969 32.066406 C 25.167969 30.117188 26.746094 28.539062 28.691406 28.539062 C 30.640625 28.539062 32.21875 30.117188 32.21875 32.066406 Z M 32.21875 32.066406 "/>
<path style=" stroke:none;fill-rule:evenodd;fill:rgb(36.862745%,36.862745%,36.862745%);fill-opacity:1;" d="M 50.339844 32.066406 C 50.339844 34.015625 48.761719 35.597656 46.816406 35.597656 C 44.871094 35.597656 43.292969 34.015625 43.292969 32.066406 C 43.292969 30.117188 44.871094 28.539062 46.816406 28.539062 C 48.761719 28.539062 50.339844 30.117188 50.339844 32.066406 Z M 50.339844 32.066406 "/>
<path style="fill:none;stroke-width:5.2;stroke-linecap:round;stroke-linejoin:miter;stroke:rgb(36.862745%,36.862745%,36.862745%);stroke-opacity:1;stroke-miterlimit:4;" d="M 82.078143 87.168015 C 82.079603 82.193455 77.82696 78.167451 72.58045 78.168856 C 67.334076 78.162514 63.08047 82.195013 63.079146 87.161827 " transform="matrix(-0.503313,0.00879953,-0.00878536,-0.504125,75.803375,84.52991)"/>
<path style="fill:none;stroke-width:6;stroke-linecap:round;stroke-linejoin:miter;stroke:rgb(36.862745%,36.862745%,36.862745%);stroke-opacity:1;stroke-miterlimit:4;" d="M 71.697733 28.001628 L 71.697733 19.603451 " transform="matrix(0.50339,0,0,0.504202,2.013559,1.815126)"/>
<path style="fill:none;stroke-width:5.5;stroke-linecap:butt;stroke-linejoin:miter;stroke:rgb(36.862745%,36.862745%,36.862745%);stroke-opacity:1;stroke-miterlimit:4;" d="M 76.997738 5.50319 C 76.997738 8.540169 74.537852 11.003841 71.503735 11.003841 C 68.461858 11.003841 66.001973 8.540169 66.001973 5.50319 C 66.001973 2.466211 68.461858 0.00253906 71.503735 0.00253906 C 74.537852 0.00253906 76.997738 2.466211 76.997738 5.50319 Z M 76.997738 5.50319 " transform="matrix(0.50339,0,0,0.504202,2.013559,1.815126)"/>
<path style="fill:none;stroke-width:9;stroke-linecap:butt;stroke-linejoin:miter;stroke:rgb(36.862745%,36.862745%,36.862745%);stroke-opacity:1;stroke-miterlimit:4;" d="M 42.497264 27.498047 L 102.496738 27.498047 C 112.99587 27.498047 121.50071 36.004688 121.50071 46.502409 L 121.50071 89.500456 C 121.50071 99.99043 112.99587 108.49707 102.496738 108.49707 L 42.497264 108.49707 C 32.005892 108.49707 23.501052 99.99043 23.501052 89.500456 L 23.501052 46.502409 C 23.501052 36.004688 32.005892 27.498047 42.497264 27.498047 Z M 42.497264 27.498047 " transform="matrix(0.50339,0,0,0.504202,2.013559,1.815126)"/>
<path style="fill:none;stroke-width:7.4;stroke-linecap:round;stroke-linejoin:miter;stroke:rgb(36.862745%,36.862745%,36.862745%);stroke-opacity:1;stroke-miterlimit:4;" d="M 126.001447 60.016276 C 140.66764 59.535937 146.844513 67.864388 144.524306 85.001628 " transform="matrix(0.50339,0,0,-0.504202,2.013559,74.92437)"/>
<path style="fill:none;stroke-width:7.4;stroke-linecap:round;stroke-linejoin:miter;stroke:rgb(36.862745%,36.862745%,36.862745%);stroke-opacity:1;stroke-miterlimit:4;" d="M -0.000315657 83.023633 C 14.673637 82.535547 20.84275 90.863997 18.522543 108.001237 " transform="matrix(-0.50339,0,0,0.504202,11.577966,1.815126)"/>
</g>
</svg>
